<svg xmlns="http://www.w3.org/2000/svg" width="6.094" height="10.96" viewBox="0 0 6.094 10.96">
  <g id="seta" transform="translate(-1385.412 -404.214)">
    <path id="union" d="M1596.365-6.908l-4.809-4.809a.631.631,0,0,1-.067-.058.607.607,0,0,1-.178-.435.607.607,0,0,1,.178-.435.631.631,0,0,1,.067-.058l4.809-4.809a.608.608,0,0,1,.86,0,.608.608,0,0,1,0,.86l-4.442,4.441,4.442,4.442a.608.608,0,0,1,0,.86.607.607,0,0,1-.43.178A.606.606,0,0,1,1596.365-6.908Z" transform="translate(2982.817 397.485) rotate(180)" fill="#86878d"/>
  </g>
</svg>
